<mxfile host="app.diagrams.net" agent="Mozilla/5.0 (X11; Ubuntu; Linux x86_64; rv:136.0) Gecko/20100101 Firefox/136.0" version="26.1.1">
  <diagram name="Page-1" id="JsCwIz8Kpc4aWjF-00SY">
    <mxGraphModel dx="2218" dy="790" grid="1" gridSize="10" guides="1" tooltips="1" connect="1" arrows="1" fold="1" page="1" pageScale="1" pageWidth="850" pageHeight="1100" math="0" shadow="0">
      <root>
        <mxCell id="0" />
        <mxCell id="1" parent="0" />
        <mxCell id="9LaWhNutDbTBSkz7prja-8" value="" style="edgeStyle=orthogonalEdgeStyle;rounded=0;orthogonalLoop=1;jettySize=auto;html=1;fontFamily=Times New Roman;" edge="1" parent="1" target="9LaWhNutDbTBSkz7prja-2">
          <mxGeometry relative="1" as="geometry">
            <mxPoint x="140" y="300" as="sourcePoint" />
          </mxGeometry>
        </mxCell>
        <mxCell id="9LaWhNutDbTBSkz7prja-1" value="Crash" style="rounded=1;whiteSpace=wrap;html=1;fontFamily=Times New Roman;" vertex="1" parent="1">
          <mxGeometry y="280" width="80" height="40" as="geometry" />
        </mxCell>
        <mxCell id="9LaWhNutDbTBSkz7prja-2" value="Roll over" style="rounded=1;whiteSpace=wrap;html=1;fontFamily=Times New Roman;" vertex="1" parent="1">
          <mxGeometry x="100" y="360" width="80" height="40" as="geometry" />
        </mxCell>
        <mxCell id="9LaWhNutDbTBSkz7prja-3" value="&lt;div&gt;&lt;b&gt;P&lt;/b&gt;itch over&lt;/div&gt;&lt;div&gt;&lt;b&gt;(P)&lt;/b&gt;&lt;/div&gt;" style="rounded=1;whiteSpace=wrap;html=1;fontFamily=Times New Roman;" vertex="1" parent="1">
          <mxGeometry x="220" y="240" width="80" height="40" as="geometry" />
        </mxCell>
        <mxCell id="9LaWhNutDbTBSkz7prja-4" value="&lt;div&gt;External perturbation&lt;/div&gt;&lt;div&gt;&lt;b&gt;(1)&lt;/b&gt;&lt;/div&gt;" style="rounded=1;whiteSpace=wrap;html=1;fontFamily=Times New Roman;" vertex="1" parent="1">
          <mxGeometry x="420" y="190" width="80" height="60" as="geometry" />
        </mxCell>
        <mxCell id="9LaWhNutDbTBSkz7prja-5" value="&lt;div&gt;No external perturbation&lt;/div&gt;&lt;div&gt;&lt;b&gt;(0)&lt;/b&gt;&lt;/div&gt;" style="rounded=1;whiteSpace=wrap;html=1;fontFamily=Times New Roman;" vertex="1" parent="1">
          <mxGeometry x="420" y="350" width="80" height="60" as="geometry" />
        </mxCell>
        <mxCell id="9LaWhNutDbTBSkz7prja-6" value="&lt;div&gt;&lt;b&gt;H&lt;/b&gt;igh side&lt;/div&gt;&lt;b&gt;(H)&lt;/b&gt;" style="rounded=1;whiteSpace=wrap;html=1;fontFamily=Times New Roman;" vertex="1" parent="1">
          <mxGeometry x="220" y="320" width="80" height="40" as="geometry" />
        </mxCell>
        <mxCell id="9LaWhNutDbTBSkz7prja-7" value="&lt;div&gt;&lt;b&gt;L&lt;/b&gt;ow side&lt;/div&gt;&lt;b&gt;(L)&lt;/b&gt;" style="rounded=1;whiteSpace=wrap;html=1;fontFamily=Times New Roman;" vertex="1" parent="1">
          <mxGeometry x="220" y="400" width="80" height="40" as="geometry" />
        </mxCell>
        <mxCell id="9LaWhNutDbTBSkz7prja-9" value="" style="endArrow=classic;html=1;rounded=0;entryX=0;entryY=0.5;entryDx=0;entryDy=0;exitX=1;exitY=0.5;exitDx=0;exitDy=0;fontFamily=Times New Roman;" edge="1" parent="1" source="9LaWhNutDbTBSkz7prja-1" target="9LaWhNutDbTBSkz7prja-3">
          <mxGeometry width="50" height="50" relative="1" as="geometry">
            <mxPoint x="240" y="370" as="sourcePoint" />
            <mxPoint x="290" y="320" as="targetPoint" />
            <Array as="points">
              <mxPoint x="140" y="300" />
              <mxPoint x="140" y="260" />
            </Array>
          </mxGeometry>
        </mxCell>
        <mxCell id="9LaWhNutDbTBSkz7prja-10" value="" style="endArrow=classic;html=1;rounded=0;entryX=0;entryY=0.5;entryDx=0;entryDy=0;fontFamily=Times New Roman;" edge="1" parent="1" target="9LaWhNutDbTBSkz7prja-6">
          <mxGeometry width="50" height="50" relative="1" as="geometry">
            <mxPoint x="180" y="380" as="sourcePoint" />
            <mxPoint x="200" y="340" as="targetPoint" />
            <Array as="points">
              <mxPoint x="200" y="380" />
              <mxPoint x="200" y="340" />
            </Array>
          </mxGeometry>
        </mxCell>
        <mxCell id="9LaWhNutDbTBSkz7prja-11" value="" style="endArrow=classic;html=1;rounded=0;entryX=0;entryY=0.5;entryDx=0;entryDy=0;exitX=1;exitY=0.5;exitDx=0;exitDy=0;fontFamily=Times New Roman;" edge="1" parent="1" source="9LaWhNutDbTBSkz7prja-2" target="9LaWhNutDbTBSkz7prja-7">
          <mxGeometry width="50" height="50" relative="1" as="geometry">
            <mxPoint x="240" y="330" as="sourcePoint" />
            <mxPoint x="290" y="280" as="targetPoint" />
            <Array as="points">
              <mxPoint x="180" y="380" />
              <mxPoint x="200" y="380" />
              <mxPoint x="200" y="420" />
            </Array>
          </mxGeometry>
        </mxCell>
        <mxCell id="9LaWhNutDbTBSkz7prja-12" value="" style="endArrow=classic;html=1;rounded=0;exitX=1;exitY=0.5;exitDx=0;exitDy=0;fontFamily=Times New Roman;" edge="1" parent="1" source="9LaWhNutDbTBSkz7prja-3" target="9LaWhNutDbTBSkz7prja-13">
          <mxGeometry width="50" height="50" relative="1" as="geometry">
            <mxPoint x="350" y="350" as="sourcePoint" />
            <mxPoint x="380" y="300" as="targetPoint" />
            <Array as="points">
              <mxPoint x="360" y="260" />
            </Array>
          </mxGeometry>
        </mxCell>
        <mxCell id="9LaWhNutDbTBSkz7prja-13" value="" style="ellipse;whiteSpace=wrap;html=1;aspect=fixed;fontFamily=Times New Roman;" vertex="1" parent="1">
          <mxGeometry x="350" y="290" width="20" height="20" as="geometry" />
        </mxCell>
        <mxCell id="9LaWhNutDbTBSkz7prja-14" value="" style="endArrow=none;html=1;rounded=0;fontFamily=Times New Roman;" edge="1" parent="1">
          <mxGeometry width="50" height="50" relative="1" as="geometry">
            <mxPoint x="300" y="340" as="sourcePoint" />
            <mxPoint x="320" y="340" as="targetPoint" />
          </mxGeometry>
        </mxCell>
        <mxCell id="9LaWhNutDbTBSkz7prja-15" value="" style="endArrow=none;html=1;rounded=0;fontFamily=Times New Roman;" edge="1" parent="1">
          <mxGeometry width="50" height="50" relative="1" as="geometry">
            <mxPoint x="300" y="420" as="sourcePoint" />
            <mxPoint x="320" y="419.76" as="targetPoint" />
          </mxGeometry>
        </mxCell>
        <mxCell id="9LaWhNutDbTBSkz7prja-16" value="" style="endArrow=none;html=1;rounded=0;fontFamily=Times New Roman;" edge="1" parent="1">
          <mxGeometry width="50" height="50" relative="1" as="geometry">
            <mxPoint x="320" y="420" as="sourcePoint" />
            <mxPoint x="320" y="340" as="targetPoint" />
          </mxGeometry>
        </mxCell>
        <mxCell id="9LaWhNutDbTBSkz7prja-17" value="" style="endArrow=classic;html=1;rounded=0;entryX=0.5;entryY=1;entryDx=0;entryDy=0;fontFamily=Times New Roman;" edge="1" parent="1" target="9LaWhNutDbTBSkz7prja-13">
          <mxGeometry width="50" height="50" relative="1" as="geometry">
            <mxPoint x="320" y="380" as="sourcePoint" />
            <mxPoint x="290" y="320" as="targetPoint" />
            <Array as="points">
              <mxPoint x="360" y="380" />
            </Array>
          </mxGeometry>
        </mxCell>
        <mxCell id="9LaWhNutDbTBSkz7prja-18" value="" style="endArrow=classic;html=1;rounded=0;entryX=0;entryY=0.5;entryDx=0;entryDy=0;exitX=1;exitY=0.5;exitDx=0;exitDy=0;fontFamily=Times New Roman;" edge="1" parent="1" source="9LaWhNutDbTBSkz7prja-13" target="9LaWhNutDbTBSkz7prja-4">
          <mxGeometry width="50" height="50" relative="1" as="geometry">
            <mxPoint x="240" y="370" as="sourcePoint" />
            <mxPoint x="290" y="320" as="targetPoint" />
            <Array as="points">
              <mxPoint x="400" y="300" />
              <mxPoint x="400" y="220" />
              <mxPoint x="420" y="220" />
            </Array>
          </mxGeometry>
        </mxCell>
        <mxCell id="9LaWhNutDbTBSkz7prja-19" value="" style="endArrow=classic;html=1;rounded=0;entryX=0;entryY=0.5;entryDx=0;entryDy=0;exitX=1;exitY=0.5;exitDx=0;exitDy=0;fontFamily=Times New Roman;" edge="1" parent="1" source="9LaWhNutDbTBSkz7prja-13" target="9LaWhNutDbTBSkz7prja-5">
          <mxGeometry width="50" height="50" relative="1" as="geometry">
            <mxPoint x="240" y="370" as="sourcePoint" />
            <mxPoint x="290" y="320" as="targetPoint" />
            <Array as="points">
              <mxPoint x="400" y="300" />
              <mxPoint x="400" y="380" />
              <mxPoint x="420" y="380" />
            </Array>
          </mxGeometry>
        </mxCell>
        <mxCell id="9LaWhNutDbTBSkz7prja-20" value="" style="endArrow=none;dashed=1;html=1;rounded=0;fontFamily=Times New Roman;" edge="1" parent="1">
          <mxGeometry width="50" height="50" relative="1" as="geometry">
            <mxPoint x="90" y="520" as="sourcePoint" />
            <mxPoint x="90" y="120" as="targetPoint" />
          </mxGeometry>
        </mxCell>
        <mxCell id="9LaWhNutDbTBSkz7prja-21" value="" style="endArrow=none;dashed=1;html=1;rounded=0;fontFamily=Times New Roman;" edge="1" parent="1">
          <mxGeometry width="50" height="50" relative="1" as="geometry">
            <mxPoint x="380" y="520" as="sourcePoint" />
            <mxPoint x="380" y="120" as="targetPoint" />
          </mxGeometry>
        </mxCell>
        <mxCell id="9LaWhNutDbTBSkz7prja-22" value="" style="endArrow=none;dashed=1;html=1;rounded=0;fontFamily=Times New Roman;" edge="1" parent="1">
          <mxGeometry width="50" height="50" relative="1" as="geometry">
            <mxPoint x="520" y="520" as="sourcePoint" />
            <mxPoint x="520" y="120" as="targetPoint" />
          </mxGeometry>
        </mxCell>
        <mxCell id="9LaWhNutDbTBSkz7prja-23" value="&lt;div&gt;&lt;b&gt;S&lt;/b&gt;lide&lt;/div&gt;&lt;div&gt;&lt;b&gt;(S)&lt;/b&gt;&lt;/div&gt;" style="rounded=1;whiteSpace=wrap;html=1;fontFamily=Times New Roman;" vertex="1" parent="1">
          <mxGeometry x="580" y="320" width="80" height="40" as="geometry" />
        </mxCell>
        <mxCell id="9LaWhNutDbTBSkz7prja-24" value="&lt;div&gt;Load &lt;b&gt;T&lt;/b&gt;ransfer&lt;/div&gt;&lt;div&gt;&lt;b&gt;(T)&lt;/b&gt;&lt;/div&gt;" style="rounded=1;whiteSpace=wrap;html=1;fontFamily=Times New Roman;" vertex="1" parent="1">
          <mxGeometry x="580" y="400" width="80" height="40" as="geometry" />
        </mxCell>
        <mxCell id="9LaWhNutDbTBSkz7prja-25" value="&lt;div&gt;&lt;b&gt;I&lt;/b&gt;mpulse&lt;/div&gt;&lt;div&gt;&lt;b&gt;(I)&lt;/b&gt;&lt;/div&gt;" style="rounded=1;whiteSpace=wrap;html=1;fontFamily=Times New Roman;" vertex="1" parent="1">
          <mxGeometry x="580" y="160" width="80" height="40" as="geometry" />
        </mxCell>
        <mxCell id="9LaWhNutDbTBSkz7prja-26" value="&lt;div&gt;R&lt;b&gt;e&lt;/b&gt;strictive&lt;/div&gt;&lt;div&gt;&lt;b&gt;(E)&lt;/b&gt;&lt;/div&gt;" style="rounded=1;whiteSpace=wrap;html=1;fontFamily=Times New Roman;" vertex="1" parent="1">
          <mxGeometry x="580" y="240" width="80" height="40" as="geometry" />
        </mxCell>
        <mxCell id="9LaWhNutDbTBSkz7prja-27" value="&lt;div&gt;&lt;b&gt;N&lt;/b&gt;o control&lt;/div&gt;&lt;div&gt;&lt;b&gt;(N)&lt;/b&gt;&lt;/div&gt;" style="rounded=1;whiteSpace=wrap;html=1;fontFamily=Times New Roman;" vertex="1" parent="1">
          <mxGeometry x="580" y="480" width="80" height="40" as="geometry" />
        </mxCell>
        <mxCell id="9LaWhNutDbTBSkz7prja-30" value="&lt;div&gt;&lt;b&gt;F&lt;/b&gt;ront/&lt;b&gt;R&lt;/b&gt;ear&lt;/div&gt;&lt;div&gt;&lt;b&gt;(F/R)&lt;/b&gt;&lt;/div&gt;" style="rounded=1;whiteSpace=wrap;html=1;fontFamily=Times New Roman;" vertex="1" parent="1">
          <mxGeometry x="760" y="290" width="80" height="40" as="geometry" />
        </mxCell>
        <mxCell id="9LaWhNutDbTBSkz7prja-31" value="&lt;div&gt;&lt;b&gt;Lon&lt;/b&gt;gitudinal/&lt;/div&gt;&lt;div&gt;&lt;b&gt;Lat&lt;/b&gt;eral&lt;/div&gt;&lt;div&gt;&lt;b&gt;(Lon/Lat)&lt;/b&gt;&lt;/div&gt;" style="rounded=1;whiteSpace=wrap;html=1;fontFamily=Times New Roman;" vertex="1" parent="1">
          <mxGeometry x="760" y="190" width="80" height="60" as="geometry" />
        </mxCell>
        <mxCell id="9LaWhNutDbTBSkz7prja-43" value="" style="edgeStyle=orthogonalEdgeStyle;rounded=0;orthogonalLoop=1;jettySize=auto;html=1;fontFamily=Times New Roman;" edge="1" parent="1" source="9LaWhNutDbTBSkz7prja-32" target="9LaWhNutDbTBSkz7prja-30">
          <mxGeometry relative="1" as="geometry" />
        </mxCell>
        <mxCell id="9LaWhNutDbTBSkz7prja-32" value="" style="ellipse;whiteSpace=wrap;html=1;aspect=fixed;fontFamily=Times New Roman;" vertex="1" parent="1">
          <mxGeometry x="710" y="300" width="20" height="20" as="geometry" />
        </mxCell>
        <mxCell id="9LaWhNutDbTBSkz7prja-34" value="" style="endArrow=classic;html=1;rounded=0;entryX=0;entryY=0.5;entryDx=0;entryDy=0;fontFamily=Times New Roman;" edge="1" parent="1" target="9LaWhNutDbTBSkz7prja-25">
          <mxGeometry width="50" height="50" relative="1" as="geometry">
            <mxPoint x="520" y="220" as="sourcePoint" />
            <mxPoint x="570" y="170" as="targetPoint" />
            <Array as="points">
              <mxPoint x="550" y="220" />
              <mxPoint x="550" y="180" />
            </Array>
          </mxGeometry>
        </mxCell>
        <mxCell id="9LaWhNutDbTBSkz7prja-35" value="" style="endArrow=classic;html=1;rounded=0;entryX=0;entryY=0.5;entryDx=0;entryDy=0;exitX=1;exitY=0.5;exitDx=0;exitDy=0;fontFamily=Times New Roman;" edge="1" parent="1" source="9LaWhNutDbTBSkz7prja-4" target="9LaWhNutDbTBSkz7prja-26">
          <mxGeometry width="50" height="50" relative="1" as="geometry">
            <mxPoint x="440" y="330" as="sourcePoint" />
            <mxPoint x="490" y="280" as="targetPoint" />
            <Array as="points">
              <mxPoint x="550" y="220" />
              <mxPoint x="550" y="260" />
            </Array>
          </mxGeometry>
        </mxCell>
        <mxCell id="9LaWhNutDbTBSkz7prja-36" value="" style="endArrow=classic;html=1;rounded=0;entryX=0;entryY=0.5;entryDx=0;entryDy=0;exitX=1;exitY=0.5;exitDx=0;exitDy=0;fontFamily=Times New Roman;" edge="1" parent="1" source="9LaWhNutDbTBSkz7prja-5" target="9LaWhNutDbTBSkz7prja-23">
          <mxGeometry width="50" height="50" relative="1" as="geometry">
            <mxPoint x="440" y="390" as="sourcePoint" />
            <mxPoint x="490" y="340" as="targetPoint" />
            <Array as="points">
              <mxPoint x="550" y="380" />
              <mxPoint x="550" y="340" />
            </Array>
          </mxGeometry>
        </mxCell>
        <mxCell id="9LaWhNutDbTBSkz7prja-37" value="" style="endArrow=classic;html=1;rounded=0;entryX=0;entryY=0.5;entryDx=0;entryDy=0;exitX=1;exitY=0.5;exitDx=0;exitDy=0;fontFamily=Times New Roman;" edge="1" parent="1" source="9LaWhNutDbTBSkz7prja-5" target="9LaWhNutDbTBSkz7prja-24">
          <mxGeometry width="50" height="50" relative="1" as="geometry">
            <mxPoint x="440" y="390" as="sourcePoint" />
            <mxPoint x="490" y="340" as="targetPoint" />
            <Array as="points">
              <mxPoint x="550" y="380" />
              <mxPoint x="550" y="420" />
            </Array>
          </mxGeometry>
        </mxCell>
        <mxCell id="9LaWhNutDbTBSkz7prja-38" value="" style="endArrow=classic;html=1;rounded=0;entryX=0;entryY=0.5;entryDx=0;entryDy=0;exitX=1;exitY=0.5;exitDx=0;exitDy=0;fontFamily=Times New Roman;" edge="1" parent="1" source="9LaWhNutDbTBSkz7prja-5" target="9LaWhNutDbTBSkz7prja-27">
          <mxGeometry width="50" height="50" relative="1" as="geometry">
            <mxPoint x="440" y="390" as="sourcePoint" />
            <mxPoint x="490" y="340" as="targetPoint" />
            <Array as="points">
              <mxPoint x="550" y="380" />
              <mxPoint x="550" y="500" />
            </Array>
          </mxGeometry>
        </mxCell>
        <mxCell id="9LaWhNutDbTBSkz7prja-39" value="" style="endArrow=classic;html=1;rounded=0;entryX=0.5;entryY=1;entryDx=0;entryDy=0;exitX=1;exitY=0.5;exitDx=0;exitDy=0;fontFamily=Times New Roman;" edge="1" parent="1" source="9LaWhNutDbTBSkz7prja-23" target="9LaWhNutDbTBSkz7prja-32">
          <mxGeometry width="50" height="50" relative="1" as="geometry">
            <mxPoint x="600" y="360" as="sourcePoint" />
            <mxPoint x="650" y="310" as="targetPoint" />
            <Array as="points">
              <mxPoint x="720" y="340" />
            </Array>
          </mxGeometry>
        </mxCell>
        <mxCell id="9LaWhNutDbTBSkz7prja-40" value="" style="endArrow=none;html=1;rounded=0;entryX=1;entryY=0.5;entryDx=0;entryDy=0;fontFamily=Times New Roman;" edge="1" parent="1" target="9LaWhNutDbTBSkz7prja-25">
          <mxGeometry width="50" height="50" relative="1" as="geometry">
            <mxPoint x="660" y="260" as="sourcePoint" />
            <mxPoint x="710" y="210" as="targetPoint" />
            <Array as="points">
              <mxPoint x="680" y="260" />
              <mxPoint x="680" y="220" />
              <mxPoint x="680" y="180" />
            </Array>
          </mxGeometry>
        </mxCell>
        <mxCell id="9LaWhNutDbTBSkz7prja-41" value="" style="endArrow=classic;html=1;rounded=0;entryX=0;entryY=0.5;entryDx=0;entryDy=0;fontFamily=Times New Roman;" edge="1" parent="1" target="9LaWhNutDbTBSkz7prja-31">
          <mxGeometry width="50" height="50" relative="1" as="geometry">
            <mxPoint x="680" y="220" as="sourcePoint" />
            <mxPoint x="730.0000000000141" y="220" as="targetPoint" />
          </mxGeometry>
        </mxCell>
        <mxCell id="9LaWhNutDbTBSkz7prja-45" value="Steady/planned cornering" style="rounded=1;whiteSpace=wrap;html=1;fontFamily=Times New Roman;" vertex="1" parent="1">
          <mxGeometry x="-140" y="280" width="80" height="40" as="geometry" />
        </mxCell>
        <mxCell id="9LaWhNutDbTBSkz7prja-46" value="&lt;div&gt;Start/stop&lt;/div&gt;&lt;div&gt;Low speed&lt;/div&gt;" style="rounded=1;whiteSpace=wrap;html=1;fontFamily=Times New Roman;" vertex="1" parent="1">
          <mxGeometry x="-140" y="360" width="80" height="40" as="geometry" />
        </mxCell>
        <mxCell id="9LaWhNutDbTBSkz7prja-47" value="Straight running" style="rounded=1;whiteSpace=wrap;html=1;fontFamily=Times New Roman;" vertex="1" parent="1">
          <mxGeometry x="-140" y="120" width="80" height="40" as="geometry" />
        </mxCell>
        <mxCell id="9LaWhNutDbTBSkz7prja-48" value="Longitudinal acceleration" style="rounded=1;whiteSpace=wrap;html=1;fontFamily=Times New Roman;" vertex="1" parent="1">
          <mxGeometry x="-140" y="200" width="80" height="40" as="geometry" />
        </mxCell>
        <mxCell id="9LaWhNutDbTBSkz7prja-49" value="Unplanned turning/ avoidance" style="rounded=1;whiteSpace=wrap;html=1;fontFamily=Times New Roman;" vertex="1" parent="1">
          <mxGeometry x="-140" y="430" width="80" height="60" as="geometry" />
        </mxCell>
        <mxCell id="9LaWhNutDbTBSkz7prja-51" value="" style="endArrow=none;html=1;rounded=0;entryX=1;entryY=0.5;entryDx=0;entryDy=0;fontFamily=Times New Roman;exitX=1;exitY=0.5;exitDx=0;exitDy=0;" edge="1" parent="1" source="9LaWhNutDbTBSkz7prja-49" target="9LaWhNutDbTBSkz7prja-47">
          <mxGeometry width="50" height="50" relative="1" as="geometry">
            <mxPoint x="-50" y="450" as="sourcePoint" />
            <mxPoint x="-10" y="410" as="targetPoint" />
            <Array as="points">
              <mxPoint x="-40" y="460" />
              <mxPoint x="-40" y="290" />
              <mxPoint x="-40" y="140" />
            </Array>
          </mxGeometry>
        </mxCell>
        <mxCell id="9LaWhNutDbTBSkz7prja-52" value="" style="endArrow=none;html=1;rounded=0;exitX=1;exitY=0.5;exitDx=0;exitDy=0;fontFamily=Times New Roman;" edge="1" parent="1" source="9LaWhNutDbTBSkz7prja-48">
          <mxGeometry width="50" height="50" relative="1" as="geometry">
            <mxPoint x="60" y="300" as="sourcePoint" />
            <mxPoint x="-40" y="220" as="targetPoint" />
          </mxGeometry>
        </mxCell>
        <mxCell id="9LaWhNutDbTBSkz7prja-53" value="" style="endArrow=none;html=1;rounded=0;exitX=1;exitY=0.5;exitDx=0;exitDy=0;fontFamily=Times New Roman;" edge="1" parent="1">
          <mxGeometry width="50" height="50" relative="1" as="geometry">
            <mxPoint x="-60" y="299.83" as="sourcePoint" />
            <mxPoint x="-40" y="299.83" as="targetPoint" />
          </mxGeometry>
        </mxCell>
        <mxCell id="9LaWhNutDbTBSkz7prja-54" value="" style="endArrow=none;html=1;rounded=0;exitX=1;exitY=0.5;exitDx=0;exitDy=0;fontFamily=Times New Roman;" edge="1" parent="1">
          <mxGeometry width="50" height="50" relative="1" as="geometry">
            <mxPoint x="-60" y="379.83000000000004" as="sourcePoint" />
            <mxPoint x="-40" y="379.83000000000004" as="targetPoint" />
          </mxGeometry>
        </mxCell>
        <mxCell id="9LaWhNutDbTBSkz7prja-55" value="" style="endArrow=classic;html=1;rounded=0;entryX=0;entryY=0.5;entryDx=0;entryDy=0;fontFamily=Times New Roman;" edge="1" parent="1" target="9LaWhNutDbTBSkz7prja-1">
          <mxGeometry width="50" height="50" relative="1" as="geometry">
            <mxPoint x="-40" y="300" as="sourcePoint" />
            <mxPoint x="150" y="320" as="targetPoint" />
          </mxGeometry>
        </mxCell>
        <mxCell id="9LaWhNutDbTBSkz7prja-56" value="" style="endArrow=none;dashed=1;html=1;rounded=0;fontFamily=Times New Roman;" edge="1" parent="1">
          <mxGeometry width="50" height="50" relative="1" as="geometry">
            <mxPoint x="-20" y="520" as="sourcePoint" />
            <mxPoint x="-20" y="120" as="targetPoint" />
          </mxGeometry>
        </mxCell>
        <mxCell id="9LaWhNutDbTBSkz7prja-58" value="" style="endArrow=classic;startArrow=classic;html=1;rounded=0;entryX=0.5;entryY=1;entryDx=0;entryDy=0;exitX=0.5;exitY=0;exitDx=0;exitDy=0;dashed=1;" edge="1" parent="1" source="9LaWhNutDbTBSkz7prja-30" target="9LaWhNutDbTBSkz7prja-31">
          <mxGeometry width="50" height="50" relative="1" as="geometry">
            <mxPoint x="770" y="400" as="sourcePoint" />
            <mxPoint x="820" y="350" as="targetPoint" />
          </mxGeometry>
        </mxCell>
        <mxCell id="9LaWhNutDbTBSkz7prja-59" value="" style="shape=link;html=1;rounded=0;" edge="1" parent="1">
          <mxGeometry relative="1" as="geometry">
            <mxPoint x="100" y="560" as="sourcePoint" />
            <mxPoint x="370" y="560" as="targetPoint" />
          </mxGeometry>
        </mxCell>
        <mxCell id="9LaWhNutDbTBSkz7prja-60" value="&lt;div align=&quot;right&quot;&gt;&lt;font face=&quot;Times New Roman&quot;&gt;Motion&lt;/font&gt;&lt;/div&gt;" style="resizable=0;html=1;whiteSpace=wrap;align=right;verticalAlign=bottom;" connectable="0" vertex="1" parent="9LaWhNutDbTBSkz7prja-59">
          <mxGeometry x="1" relative="1" as="geometry">
            <mxPoint x="-120" as="offset" />
          </mxGeometry>
        </mxCell>
        <mxCell id="9LaWhNutDbTBSkz7prja-63" value="" style="shape=link;html=1;rounded=0;" edge="1" parent="1">
          <mxGeometry relative="1" as="geometry">
            <mxPoint x="390" y="560" as="sourcePoint" />
            <mxPoint x="510" y="560" as="targetPoint" />
          </mxGeometry>
        </mxCell>
        <mxCell id="9LaWhNutDbTBSkz7prja-64" value="&lt;font face=&quot;Times New Roman&quot;&gt;Interaction&lt;/font&gt;" style="resizable=0;html=1;whiteSpace=wrap;align=right;verticalAlign=bottom;" connectable="0" vertex="1" parent="9LaWhNutDbTBSkz7prja-63">
          <mxGeometry x="1" relative="1" as="geometry">
            <mxPoint x="-30" as="offset" />
          </mxGeometry>
        </mxCell>
        <mxCell id="9LaWhNutDbTBSkz7prja-65" value="" style="shape=link;html=1;rounded=0;" edge="1" parent="1">
          <mxGeometry relative="1" as="geometry">
            <mxPoint x="530" y="560" as="sourcePoint" />
            <mxPoint x="700" y="560" as="targetPoint" />
          </mxGeometry>
        </mxCell>
        <mxCell id="9LaWhNutDbTBSkz7prja-66" value="&lt;font face=&quot;Times New Roman&quot;&gt;Mechanism&lt;/font&gt;" style="resizable=0;html=1;whiteSpace=wrap;align=right;verticalAlign=bottom;" connectable="0" vertex="1" parent="9LaWhNutDbTBSkz7prja-65">
          <mxGeometry x="1" relative="1" as="geometry">
            <mxPoint x="-60" as="offset" />
          </mxGeometry>
        </mxCell>
        <mxCell id="9LaWhNutDbTBSkz7prja-67" value="" style="shape=link;html=1;rounded=0;" edge="1" parent="1">
          <mxGeometry relative="1" as="geometry">
            <mxPoint x="-150" y="560" as="sourcePoint" />
            <mxPoint x="-30" y="560" as="targetPoint" />
          </mxGeometry>
        </mxCell>
        <mxCell id="9LaWhNutDbTBSkz7prja-68" value="&lt;div align=&quot;right&quot;&gt;&lt;font face=&quot;Times New Roman&quot;&gt;Manoeuvre&lt;/font&gt;&lt;/div&gt;" style="resizable=0;html=1;whiteSpace=wrap;align=right;verticalAlign=bottom;" connectable="0" vertex="1" parent="9LaWhNutDbTBSkz7prja-67">
          <mxGeometry x="1" relative="1" as="geometry">
            <mxPoint x="-30" as="offset" />
          </mxGeometry>
        </mxCell>
        <mxCell id="9LaWhNutDbTBSkz7prja-69" value="" style="endArrow=classic;html=1;rounded=0;entryX=0.5;entryY=0;entryDx=0;entryDy=0;" edge="1" parent="1" target="9LaWhNutDbTBSkz7prja-32">
          <mxGeometry width="50" height="50" relative="1" as="geometry">
            <mxPoint x="680" y="220" as="sourcePoint" />
            <mxPoint x="530" y="300" as="targetPoint" />
            <Array as="points">
              <mxPoint x="720" y="220" />
            </Array>
          </mxGeometry>
        </mxCell>
      </root>
    </mxGraphModel>
  </diagram>
</mxfile>
